# xmcd
#
# Track frame offsets:
#	150
#	14390
#	31427
#	41577
#	52672
#	77747
#	95000
#	110865
#	124297
#	136522
#	146987
#	169045
#
# Disc length: 2401 seconds
#
# Revision: 0
# Processed by: cddbd v1.4PL0 Copyright (c) Steve Scherf et al.
# Submitted via: dBpowerAMP V4.0
#
DISCID=a1095f0c
DTITLE=High Country - 'the Earthquake
DYEAR=1900
DGENRE=Bluegrass
TTITLE0=The Earthquake
TTITLE1=That Dawn the Day You Left Me
TTITLE2=Tears In The Rain
TTITLE3=These Blues They Got Me
TTITLE4=Poor Wayfaring Stranger
TTITLE5=Living In The Springtime
TTITLE6=Troubles All My Own
TTITLE7=Saturday Matinee
TTITLE8=Lost Yesterdays
TTITLE9=A Hundred Love Letters
TTITLE10=Imitation Of The Blues
TTITLE11=Big Country
EXTD=
EXTT0=
EXTT1=
EXTT2=
EXTT3=
EXTT4=
EXTT5=
EXTT6=
EXTT7=
EXTT8=
EXTT9=
EXTT10=
EXTT11=
PLAYORDER=
